<?xml version="1.0" standalone="no"?>
<!DOCTYPE svg PUBLIC "-//W3C//DTD SVG 20010904//EN"
 "http://www.w3.org/TR/2001/REC-SVG-20010904/DTD/svg10.dtd">
<svg version="1.0" xmlns="http://www.w3.org/2000/svg"
 width="290.000000pt" height="290.000000pt" viewBox="0 0 290.000000 290.000000"
 preserveAspectRatio="xMidYMid meet">

<g transform="translate(0.000000,290.000000) scale(0.100000,-0.100000)"
fill="#000000" stroke="none">
<path d="M985 2484 c-206 -37 -397 -115 -499 -205 -159 -140 -362 -834 -367
-1252 -1 -127 6 -143 110 -239 116 -107 313 -196 518 -234 51 -9 103 -14 117
-10 16 4 50 42 101 112 55 75 82 104 92 99 102 -38 482 -51 653 -21 52 9 102
17 112 19 10 1 44 -35 95 -103 l78 -105 65 2 c200 6 504 140 625 275 76 85 79
94 71 243 -14 296 -95 657 -212 948 -92 228 -131 275 -299 358 -112 55 -234
92 -373 115 -117 19 -134 11 -157 -71 l-16 -55 -62 8 c-71 8 -314 9 -400 2
l-58 -5 -19 55 c-29 85 -38 88 -175 64z m75 -129 c0 -9 -6 -17 -12 -19 -124
-37 -232 -78 -311 -118 -111 -57 -131 -81 -103 -123 23 -35 54 -32 139 14 140
76 333 130 542 151 249 25 557 -33 778 -147 92 -48 117 -53 143 -32 18 15 18
63 0 82 -42 41 -342 167 -400 167 -10 0 -16 8 -16 21 0 20 3 21 57 14 143 -18
377 -111 441 -175 17 -16 50 -71 75 -122 124 -256 230 -684 244 -984 l6 -131
-44 -48 c-103 -112 -312 -212 -500 -239 l-46 -7 -41 55 c-23 30 -43 59 -44 66
-2 6 38 28 88 49 107 44 172 80 232 128 45 37 53 64 25 95 -24 27 -57 22 -110
-16 -77 -54 -183 -103 -305 -140 -175 -52 -240 -61 -463 -61 -218 0 -351 20
-500 73 -91 32 -233 104 -272 136 -33 28 -81 34 -101 14 -17 -17 -15 -64 4
-82 45 -46 178 -120 289 -161 33 -13 59 -26 59 -30 -1 -4 -21 -33 -45 -66
l-43 -60 -45 7 c-171 25 -367 112 -471 211 -38 35 -72 73 -75 84 -10 29 13
263 39 411 48 267 124 517 211 696 45 90 64 118 98 143 61 46 179 97 282 124
147 39 195 43 195 20z"/>
<path d="M980 1677 c-19 -6 -58 -34 -86 -62 -67 -66 -88 -128 -82 -234 5 -88
27 -137 85 -193 50 -48 99 -68 170 -68 72 0 130 27 182 86 77 88 94 220 42
329 -16 33 -41 72 -57 87 -65 60 -167 82 -254 55z m157 -124 c92 -61 92 -228
0 -297 -38 -28 -106 -28 -144 0 -35 25 -73 98 -73 139 0 80 55 167 112 178 32
6 79 -3 105 -20z"/>
<path d="M1726 1675 c-52 -18 -120 -87 -147 -149 -63 -142 2 -327 136 -387 49
-23 139 -24 188 -4 53 22 105 71 135 129 23 44 27 63 27 141 0 74 -4 98 -22
131 -69 129 -193 183 -317 139z m141 -116 c55 -26 86 -82 86 -154 2 -128 -113
-215 -202 -153 -54 37 -74 71 -79 136 -6 87 36 161 104 182 42 12 44 12 91
-11z"/>
</g>
</svg>
