<?xml version="1.0" encoding="UTF-8"?>
<svg xmlns="http://www.w3.org/2000/svg" xmlns:xlink="http://www.w3.org/1999/xlink" width="48px" height="48px" viewBox="0 0 48 48" version="1.1">
<g id="surface1">
<path style=" stroke:none;fill-rule:nonzero;fill:rgb(0%,0%,0%);fill-opacity:1;" d="M 16.28125 6.875 C 12.875 7.488281 9.71875 8.777344 8.03125 10.265625 C 5.40625 12.578125 2.050781 24.050781 1.96875 30.957031 C 1.949219 33.058594 2.066406 33.324219 3.785156 34.910156 C 5.703125 36.675781 8.957031 38.148438 12.347656 38.777344 C 13.191406 38.925781 14.050781 39.007812 14.28125 38.941406 C 14.546875 38.875 15.109375 38.246094 15.949219 37.089844 C 16.859375 35.851562 17.304688 35.371094 17.472656 35.453125 C 19.15625 36.082031 25.4375 36.296875 28.265625 35.800781 C 29.125 35.652344 29.949219 35.519531 30.117188 35.488281 C 30.28125 35.472656 30.84375 36.066406 31.6875 37.191406 L 32.976562 38.925781 L 34.050781 38.890625 C 37.355469 38.792969 42.378906 36.578125 44.378906 34.347656 C 45.636719 32.941406 45.6875 32.792969 45.554688 30.332031 C 45.324219 25.4375 43.984375 19.472656 42.050781 14.660156 C 40.527344 10.890625 39.882812 10.117188 37.109375 8.742188 C 35.257812 7.835938 33.238281 7.222656 30.941406 6.84375 C 29.007812 6.527344 28.726562 6.660156 28.347656 8.015625 L 28.082031 8.925781 L 27.058594 8.792969 C 25.882812 8.660156 21.867188 8.644531 20.445312 8.761719 L 19.488281 8.84375 L 19.171875 7.933594 C 18.695312 6.527344 18.546875 6.480469 16.28125 6.875 Z M 17.519531 9.007812 C 17.519531 9.15625 17.421875 9.289062 17.324219 9.324219 C 15.273438 9.933594 13.488281 10.613281 12.183594 11.273438 C 10.347656 12.214844 10.015625 12.613281 10.480469 13.304688 C 10.859375 13.882812 11.371094 13.835938 12.777344 13.074219 C 15.089844 11.816406 18.28125 10.925781 21.734375 10.578125 C 25.851562 10.164062 30.941406 11.125 34.59375 13.007812 C 36.117188 13.800781 36.527344 13.882812 36.957031 13.539062 C 37.257812 13.289062 37.257812 12.496094 36.957031 12.183594 C 36.265625 11.503906 31.304688 9.421875 30.347656 9.421875 C 30.183594 9.421875 30.082031 9.289062 30.082031 9.074219 C 30.082031 8.742188 30.132812 8.726562 31.023438 8.84375 C 33.386719 9.140625 37.257812 10.675781 38.3125 11.734375 C 38.59375 12 39.140625 12.910156 39.554688 13.753906 C 41.601562 17.984375 43.355469 25.058594 43.585938 30.015625 L 43.6875 32.183594 L 42.957031 32.976562 C 41.257812 34.828125 37.800781 36.480469 34.695312 36.925781 L 33.933594 37.042969 L 33.257812 36.132812 C 32.875 35.636719 32.546875 35.15625 32.527344 35.042969 C 32.496094 34.941406 33.15625 34.578125 33.984375 34.230469 C 35.753906 33.503906 36.828125 32.910156 37.816406 32.117188 C 38.5625 31.503906 38.695312 31.058594 38.230469 30.546875 C 37.835938 30.097656 37.289062 30.183594 36.414062 30.808594 C 35.140625 31.703125 33.386719 32.511719 31.371094 33.125 C 28.480469 33.984375 27.40625 34.132812 23.71875 34.132812 C 20.117188 34.132812 17.917969 33.800781 15.453125 32.925781 C 13.949219 32.398438 11.601562 31.207031 10.957031 30.675781 C 10.414062 30.214844 9.621094 30.117188 9.289062 30.445312 C 9.007812 30.726562 9.042969 31.503906 9.355469 31.800781 C 10.097656 32.5625 12.296875 33.785156 14.132812 34.460938 C 14.675781 34.675781 15.109375 34.890625 15.109375 34.957031 C 15.089844 35.023438 14.761719 35.503906 14.363281 36.050781 L 13.652344 37.042969 L 12.910156 36.925781 C 10.082031 36.511719 6.84375 35.074219 5.125 33.4375 C 4.496094 32.859375 3.933594 32.230469 3.882812 32.050781 C 3.71875 31.570312 4.097656 27.703125 4.527344 25.257812 C 5.324219 20.84375 6.578125 16.710938 8.015625 13.753906 C 8.761719 12.265625 9.074219 11.800781 9.636719 11.386719 C 10.644531 10.628906 12.59375 9.785156 14.296875 9.339844 C 16.726562 8.695312 17.519531 8.628906 17.519531 9.007812 Z M 17.519531 9.007812 "/>
<path style=" stroke:none;fill-rule:nonzero;fill:rgb(0%,0%,0%);fill-opacity:1;" d="M 16.199219 20.214844 C 15.882812 20.3125 15.238281 20.777344 14.777344 21.238281 C 13.667969 22.332031 13.324219 23.355469 13.421875 25.109375 C 13.503906 26.5625 13.867188 27.371094 14.828125 28.296875 C 15.652344 29.089844 16.460938 29.421875 17.636719 29.421875 C 18.828125 29.421875 19.785156 28.976562 20.644531 28 C 21.917969 26.546875 22.199219 24.363281 21.339844 22.5625 C 21.074219 22.015625 20.660156 21.371094 20.398438 21.125 C 19.324219 20.132812 17.636719 19.769531 16.199219 20.214844 Z M 18.792969 22.265625 C 20.3125 23.273438 20.3125 26.03125 18.792969 27.171875 C 18.164062 27.636719 17.042969 27.636719 16.414062 27.171875 C 15.835938 26.761719 15.207031 25.554688 15.207031 24.875 C 15.207031 23.554688 16.117188 22.117188 17.058594 21.933594 C 17.585938 21.835938 18.363281 21.984375 18.792969 22.265625 Z M 18.792969 22.265625 "/>
<path style=" stroke:none;fill-rule:nonzero;fill:rgb(0%,0%,0%);fill-opacity:1;" d="M 28.527344 20.246094 C 27.667969 20.546875 26.546875 21.6875 26.097656 22.710938 C 25.058594 25.058594 26.132812 28.117188 28.347656 29.109375 C 29.15625 29.488281 30.644531 29.503906 31.453125 29.171875 C 32.332031 28.808594 33.191406 28 33.6875 27.042969 C 34.066406 26.3125 34.132812 26 34.132812 24.710938 C 34.132812 23.488281 34.066406 23.089844 33.769531 22.546875 C 32.628906 20.414062 30.578125 19.519531 28.527344 20.246094 Z M 30.859375 22.164062 C 31.769531 22.59375 32.28125 23.519531 32.28125 24.710938 C 32.3125 26.828125 30.414062 28.265625 28.941406 27.238281 C 28.050781 26.628906 27.71875 26.066406 27.636719 24.992188 C 27.539062 23.554688 28.230469 22.332031 29.355469 21.984375 C 30.050781 21.785156 30.082031 21.785156 30.859375 22.164062 Z M 30.859375 22.164062 "/>
</g>
</svg>
